HIERARCHY
ROOT Hips
{
	OFFSET 0.000000 0.000000 0.000000
	CHANNELS 6 Xposition Yposition Zposition Zrotation Yrotation Xrotation 
	JOINT LowerBack
	{
		OFFSET 0.000000 0.000000 0.000000
		CHANNELS 3 Zrotation Yrotation Xrotation
		JOINT Spine
		{
			OFFSET 0.028270 2.035590 -0.193380
			CHANNELS 3 Zrotation Yrotation Xrotation
			JOINT Spine1
			{
				OFFSET 0.056720 2.048850 -0.042750
				CHANNELS 3 Zrotation Yrotation Xrotation
				JOINT Neck
				{
					OFFSET 0.000000 0.000000 0.000000
					CHANNELS 3 Zrotation Yrotation Xrotation
					JOINT Neck1
					{
						OFFSET -0.054170 1.746240 0.172020
						CHANNELS 3 Zrotation Yrotation Xrotation
						JOINT Head
						{
							OFFSET 0.104070 1.761360 -0.123970
							CHANNELS 3 Zrotation Yrotation Xrotation
							End Site
							{
								OFFSET 0.000000 0.000000 0.000000
							}
						}
					}
				}
				JOINT LeftShoulder
				{
					OFFSET 0.000000 0.000000 0.000000
					CHANNELS 3 Zrotation Yrotation Xrotation
					JOINT LeftArm
					{
						OFFSET 3.362410 1.200890 -0.311210
						CHANNELS 3 Zrotation Yrotation Xrotation
						JOINT LeftForeArm
						{
							OFFSET 4.983000 -0.000000 -0.000000
							CHANNELS 3 Zrotation Yrotation Xrotation
							JOINT LeftHand
							{
								OFFSET 3.483560 -0.000000 -0.000000
								CHANNELS 3 Zrotation Yrotation Xrotation
								JOINT LeftFingerBase
								{
									OFFSET 0.000000 0.000000 0.000000
									CHANNELS 3 Zrotation Yrotation Xrotation
									JOINT LeftHandIndex1
									{
										OFFSET 0.715260 -0.000000 -0.000000
										CHANNELS 3 Zrotation Yrotation Xrotation
										End Site
										{
											OFFSET 0.000000 0.000000 0.000000
										}
									}
								}
								JOINT LThumb
								{
									OFFSET 0.000000 0.000000 0.000000
									CHANNELS 3 Zrotation Yrotation Xrotation
									End Site
									{
										OFFSET 0.000000 0.000000 0.000000
									}
								}
							}
						}
					}
				}
				JOINT RightShoulder
				{
					OFFSET 0.000000 0.000000 0.000000
					CHANNELS 3 Zrotation Yrotation Xrotation
					JOINT RightArm
					{
						OFFSET -3.136600 1.374050 -0.404650
						CHANNELS 3 Zrotation Yrotation Xrotation
						JOINT RightForeArm
						{
							OFFSET -5.241900 -0.000000 -0.000000
							CHANNELS 3 Zrotation Yrotation Xrotation
							JOINT RightHand
							{
								OFFSET -3.444170 -0.000000 -0.000000
								CHANNELS 3 Zrotation Yrotation Xrotation
								JOINT RightFingerBase
								{
									OFFSET 0.000000 0.000000 0.000000
									CHANNELS 3 Zrotation Yrotation Xrotation
									JOINT RightHandIndex1
									{
										OFFSET -0.622530 -0.000000 -0.000000
										CHANNELS 3 Zrotation Yrotation Xrotation
										End Site
										{
											OFFSET 0.000000 0.000000 0.000000
										}
									}
								}
								JOINT RThumb
								{
									OFFSET 0.000000 0.000000 0.000000
									CHANNELS 3 Zrotation Yrotation Xrotation
									End Site
									{
										OFFSET 0.000000 0.000000 0.000000
									}
								}
							}
						}
					}
				}
			}
		}
	}
}
}
MOTION
Frames: 18
Frame Time: 0.008333
7.860876 16.971353 0.969006 -5.132568 -77.090186 3.977139 0.803712 -7.240364 -3.664299 -0.153715 -7.524672 -2.566524 -6.020649 -7.433449 3.816434 11.359630 -24.159052 -11.636311 -2.574941 -0.147194 -0.968730 0.000000 0.000000 0.000000 9.300397 13.365577 0.811930 -32.709995 5.525643 8.748120 -1.336118 -55.173031 -0.016975 1.951692 7.330982 0.132395 -0.125177 0.076395 0.000000 0.000000 0.000000 0.000000 0.000000 0.000000 0.000000 20.753639 -23.832774 -0.389281 77.148453 -19.606601 -15.337441 5.107914 14.276264 -0.016548 12.368691 -6.894432 -0.750751 0.047417 0.050551 -0.000000 0.000000 0.000000 0.000000 0.000000 0.000000 0.000000 
7.689922 16.977546 0.945070 -5.839376 -77.086580 4.641287 0.985016 -7.129268 -3.655939 -0.132366 -7.423458 -2.583228 -6.055243 -7.334105 3.769812 11.355339 -23.928198 -11.619973 -2.576246 -0.147823 -0.964639 0.000000 0.000000 0.000000 9.130758 13.516795 0.818733 -33.054887 5.773253 8.782338 -1.353065 -55.265445 -0.017006 1.959808 7.309057 0.132611 -0.126560 0.074066 0.000000 0.000000 0.000000 0.000000 0.000000 0.000000 0.000000 20.633254 -23.503332 -0.382237 76.654915 -18.959921 -15.630131 5.066737 14.001810 -0.014885 11.667976 -6.356050 -0.651923 0.051824 0.045263 -0.000000 0.000000 0.000000 0.000000 0.000000 0.000000 0.000000 
7.522876 16.983535 0.921368 -6.514175 -77.070645 5.285862 1.146842 -7.024266 -3.619185 -0.114776 -7.326965 -2.594520 -6.088536 -7.239586 3.722384 11.361866 -23.688447 -11.606992 -2.574609 -0.148066 -0.961436 0.000000 0.000000 0.000000 8.959300 13.667864 0.827607 -33.473193 6.061225 8.832616 -1.375408 -55.315617 -0.017133 1.988172 7.305496 0.134526 -0.128302 0.071397 0.000000 0.000000 0.000000 0.000000 0.000000 0.000000 0.000000 20.504692 -23.168400 -0.374954 76.150851 -18.230857 -15.875376 5.018629 13.768098 -0.012993 10.937284 -5.707500 -0.547891 0.056246 0.039264 -0.000000 0.000000 0.000000 0.000000 0.000000 0.000000 0.000000 
7.360083 16.989279 0.897687 -7.091743 -77.039841 5.834855 1.272655 -6.924182 -3.544749 -0.105361 -7.232608 -2.598028 -6.122163 -7.147144 3.673078 11.381825 -23.439998 -11.596480 -2.572496 -0.148137 -0.959055 0.000000 0.000000 0.000000 8.791557 13.815144 0.838849 -33.955536 6.368858 8.917679 -1.403267 -55.306238 -0.017330 2.030761 7.316872 0.137639 -0.130325 0.068262 0.000000 0.000000 0.000000 0.000000 0.000000 0.000000 0.000000 20.384051 -22.826645 -0.368844 75.642602 -17.448504 -16.056549 4.963430 13.632467 -0.010962 10.202228 -4.985942 -0.445656 0.060515 0.032787 -0.000000 0.000000 0.000000 0.000000 0.000000 0.000000 0.000000 
7.201053 16.995110 0.874456 -7.616261 -76.973655 6.343253 1.376687 -6.832766 -3.447186 -0.099517 -7.145149 -2.596841 -6.152745 -7.061651 3.623632 11.404864 -23.196875 -11.587479 -2.567823 -0.147898 -0.957068 0.000000 0.000000 0.000000 8.614913 13.943541 0.852219 -34.494849 6.708798 9.037881 -1.436921 -55.241710 -0.017555 2.069807 7.348106 0.140952 -0.132399 0.064583 0.000000 0.000000 0.000000 0.000000 0.000000 0.000000 0.000000 20.251955 -22.496475 -0.362736 75.129678 -16.602252 -16.139788 4.904099 13.563925 -0.008792 9.474847 -4.176586 -0.346019 0.064672 0.025823 -0.000000 0.000000 0.000000 0.000000 0.000000 0.000000 0.000000 
7.045822 17.001131 0.851585 -8.044762 -76.877650 6.761193 1.449799 -6.746007 -3.323768 -0.100126 -7.059746 -2.590118 -6.182065 -6.978125 3.573209 11.431530 -22.957396 -11.578631 -2.562721 -0.147558 -0.955259 0.000000 0.000000 0.000000 8.431781 14.053711 0.867876 -35.082236 7.056751 9.208421 -1.476616 -55.104766 -0.017781 2.095483 7.397254 0.143763 -0.134445 0.060219 0.000000 0.000000 0.000000 0.000000 0.000000 0.000000 0.000000 20.119915 -22.173230 -0.357531 74.616377 -15.723266 -16.118441 4.841574 13.609133 -0.006584 8.781489 -3.324961 -0.254680 0.068583 0.018634 -0.000000 0.000000 0.000000 0.000000 0.000000 0.000000 0.000000 
6.893976 17.007672 0.829296 -8.378506 -76.752500 7.094120 1.495110 -6.661657 -3.183389 -0.106374 -6.974322 -2.579651 -6.209726 -6.894498 3.522118 11.456919 -22.723744 -11.568346 -2.557173 -0.147162 -0.953189 0.000000 0.000000 0.000000 8.236830 14.143264 0.885761 -35.710091 7.405573 9.435033 -1.522604 -54.890358 -0.017981 2.092918 7.466399 0.145171 -0.136333 0.055056 0.000000 0.000000 0.000000 0.000000 0.000000 0.000000 0.000000 19.982981 -21.858310 -0.352864 74.102854 -14.825263 -15.987594 4.778170 13.770952 -0.004383 8.141211 -2.452325 -0.173641 0.072205 0.011356 -0.000000 0.000000 0.000000 0.000000 0.000000 0.000000 0.000000 
6.745064 17.014969 0.808017 -8.648372 -76.598313 7.380578 1.523476 -6.577671 -3.041335 -0.115314 -6.887604 -2.568879 -6.234124 -6.809586 3.470146 11.474228 -22.504480 -11.555282 -2.550146 -0.146681 -0.950376 0.000000 0.000000 0.000000 8.018590 14.203609 0.905366 -36.369814 7.765026 9.715180 -1.574744 -54.606572 -0.018142 2.045071 7.561328 0.144176 -0.137905 0.048984 0.000000 0.000000 0.000000 0.000000 0.000000 0.000000 0.000000 19.830237 -21.559340 -0.347540 73.583755 -13.917903 -15.707241 4.715339 14.050440 -0.002239 7.559332 -1.578087 -0.103302 0.075561 0.004176 -0.000000 0.000000 0.000000 0.000000 0.000000 0.000000 0.000000 
6.598574 17.023295 0.787866 -8.841508 -76.428267 7.612142 1.533307 -6.489636 -2.905347 -0.127476 -6.795048 -2.559292 -6.255448 -6.718890 3.417304 11.481818 -22.297135 -11.538198 -2.541655 -0.146154 -0.946490 0.000000 0.000000 0.000000 7.774246 14.240803 0.926610 -37.054275 8.125920 10.051311 -1.633094 -54.250765 -0.018268 1.940598 7.683871 0.139677 -0.139105 0.041935 0.000000 0.000000 0.000000 0.000000 0.000000 0.000000 0.000000 19.660508 -21.271020 -0.341262 73.056554 -13.019415 -15.276448 4.654118 14.457101 -0.000201 7.044926 -0.731366 -0.044164 0.078626 -0.002727 -0.000000 0.000000 0.000000 0.000000 0.000000 0.000000 0.000000 
6.454116 17.032840 0.769128 -8.972939 -76.253909 7.809883 1.529251 -6.393995 -2.787133 -0.141579 -6.693466 -2.553449 -6.272626 -6.619338 3.363270 11.477357 -22.106470 -11.516854 -2.530750 -0.145532 -0.941377 0.000000 0.000000 0.000000 7.497626 14.255914 0.948982 -37.756824 8.493848 10.438423 -1.697409 -53.831226 -0.018374 1.766684 7.837792 0.130873 -0.139851 0.033876 0.000000 0.000000 0.000000 0.000000 0.000000 0.000000 0.000000 19.468911 -20.995333 -0.333208 72.511740 -12.143920 -14.654059 4.594108 15.003498 0.001681 6.590248 0.063752 0.004373 0.081450 -0.009143 -0.000000 0.000000 0.000000 0.000000 0.000000 0.000000 0.000000 
6.311335 17.043697 0.751586 -8.987833 -76.100486 7.917979 1.496270 -6.286582 -2.686662 -0.161199 -6.577686 -2.550885 -6.286281 -6.505841 3.308981 11.461296 -21.913774 -11.489173 -2.517135 -0.144804 -0.934610 0.000000 0.000000 0.000000 7.192988 14.271075 0.973286 -38.473249 8.848469 10.877458 -1.768264 -53.338433 -0.018494 1.514422 8.022211 0.116465 -0.140151 0.024829 0.000000 0.000000 0.000000 0.000000 0.000000 0.000000 0.000000 19.252349 -20.711343 -0.323442 71.957445 -11.298060 -13.958165 4.538168 15.651252 0.003446 6.220016 0.807401 0.044408 0.083941 -0.015235 -0.000000 0.000000 0.000000 0.000000 0.000000 0.000000 0.000000 
6.169743 17.055993 0.735718 -8.936281 -75.974342 7.996273 1.445874 -6.165709 -2.617389 -0.182979 -6.446996 -2.554767 -6.293584 -6.377878 3.253903 11.433800 -21.740131 -11.458165 -2.498780 -0.143794 -0.926776 0.000000 0.000000 0.000000 6.852696 14.279556 0.997928 -39.200931 9.217983 11.350044 -1.844916 -52.796383 -0.018676 1.176081 8.241590 0.095351 -0.139940 0.014860 0.000000 0.000000 0.000000 0.000000 0.000000 0.000000 0.000000 19.008170 -20.437544 -0.310706 71.368514 -10.491923 -13.029635 4.480922 16.447252 0.004998 5.881264 1.467007 0.075642 0.086332 -0.020580 -0.000000 0.000000 0.000000 0.000000 0.000000 0.000000 0.000000 
6.029215 17.069712 0.721088 -8.753822 -75.901412 7.974379 1.358926 -6.029207 -2.572500 -0.211182 -6.298006 -2.563180 -6.294705 -6.232144 3.199521 11.396117 -21.563134 -11.422339 -2.474865 -0.142416 -0.917662 0.000000 0.000000 0.000000 6.483981 14.307668 1.024025 -39.937819 9.583299 11.851089 -1.928198 -52.196183 -0.018975 0.747124 8.492154 0.066529 -0.139262 0.004097 0.000000 0.000000 0.000000 0.000000 0.000000 0.000000 0.000000 18.731104 -20.150864 -0.295101 70.759227 -9.718929 -12.028308 4.425597 17.328312 0.006424 5.601889 2.065015 0.101074 0.088510 -0.025531 -0.000000 0.000000 0.000000 0.000000 0.000000 0.000000 0.000000 
5.889446 17.084881 0.707759 -8.445273 -75.893943 7.859732 1.234606 -5.876353 -2.553733 -0.245491 -6.130123 -2.576504 -6.287955 -6.068161 3.146376 11.350388 -21.386959 -11.383926 -2.444066 -0.140527 -0.907830 0.000000 0.000000 0.000000 6.089721 14.362084 1.050981 -40.686372 9.954763 12.362087 -2.018221 -51.547255 -0.019450 0.226435 8.771182 0.028702 -0.138134 -0.007284 0.000000 0.000000 0.000000 0.000000 0.000000 0.000000 0.000000 18.420370 -19.854231 -0.276163 70.119965 -8.979720 -10.917533 4.369263 18.302137 0.007701 5.354407 2.593218 0.121005 0.090590 -0.029992 -0.000000 0.000000 0.000000 0.000000 0.000000 0.000000 0.000000 
5.750488 17.101384 0.695431 -7.984486 -75.964623 7.619723 1.063488 -5.707678 -2.553718 -0.287589 -5.943334 -2.593069 -6.272169 -5.885971 3.095407 11.298811 -21.207384 -11.344568 -2.405254 -0.137985 -0.897816 0.000000 0.000000 0.000000 5.676192 14.455395 1.078824 -41.449170 10.331757 12.865963 -2.115379 -50.851586 -0.020159 -0.382038 9.073885 -0.018835 -0.136616 -0.019067 0.000000 0.000000 0.000000 0.000000 0.000000 0.000000 0.000000 18.074465 -19.543647 -0.253724 69.454141 -8.265269 -9.736128 4.311015 19.345731 0.008847 5.130944 3.057420 0.136535 0.092590 -0.034061 -0.000000 0.000000 0.000000 0.000000 0.000000 0.000000 0.000000 
5.612315 17.119147 0.683938 -7.355619 -76.121662 7.234925 0.841587 -5.524164 -2.566485 -0.337977 -5.738424 -2.611608 -6.246198 -5.686390 3.047464 11.242883 -21.021921 -11.306116 -2.357685 -0.134683 -0.888185 0.000000 0.000000 0.000000 5.250200 14.596459 1.107405 -42.230713 10.716514 13.343151 -2.219961 -50.112286 -0.021146 -1.069277 9.392620 -0.076479 -0.134794 -0.030997 0.000000 0.000000 0.000000 0.000000 0.000000 0.000000 0.000000 17.692544 -19.216932 -0.227661 68.763721 -7.568637 -8.505343 4.249561 20.446941 0.009864 4.920727 3.459162 0.147864 0.094537 -0.037796 -0.000000 0.000000 0.000000 0.000000 0.000000 0.000000 0.000000 
5.475158 17.138012 0.673116 -6.546285 -76.369320 6.685313 0.566927 -5.327336 -2.584451 -0.396835 -5.516792 -2.630701 -6.209240 -5.470791 3.002637 11.183382 -20.826872 -11.270110 -2.301230 -0.130576 -0.879435 0.000000 0.000000 0.000000 4.819119 14.791165 1.136564 -43.036381 11.110574 13.774193 -2.331917 -49.332745 -0.022440 -1.819694 9.719365 -0.143530 -0.132785 -0.042801 -0.000000 0.000000 0.000000 0.000000 0.000000 0.000000 0.000000 17.275021 -18.870571 -0.198063 68.051836 -6.886216 -7.243315 4.183520 21.599065 0.010748 4.714962 3.797101 0.155394 0.096433 -0.041239 -0.000000 0.000000 0.000000 0.000000 0.000000 0.000000 0.000000 
5.339024 17.157828 0.663050 -5.563968 -76.709749 5.977369 0.249926 -5.119317 -2.604064 -0.461458 -5.281258 -2.649616 -6.159814 -5.241982 2.962499 11.113896 -20.612748 -11.237092 -2.234731 -0.125543 -0.871769 0.000000 0.000000 0.000000 4.380960 15.050974 1.166733 -43.867235 11.509380 14.145327 -2.450900 -48.517288 -0.024034 -2.610862 10.045526 -0.218786 -0.130761 -0.054172 -0.000000 0.000000 0.000000 0.000000 0.000000 0.000000 0.000000 16.806797 -18.497152 -0.164683 67.336852 -6.200686 -6.032771 4.116120 22.754214 0.011565 4.532965 4.093990 0.160820 0.098195 -0.044636 -0.000000 0.000000 0.000000 0.000000 0.000000 0.000000 0.000000 
